<svg width="1440" height="829" viewBox="0 0 1440 829" fill="none" xmlns="http://www.w3.org/2000/svg">
<g clip-path="url(#clip0_8_91)">
<mask id="mask0_8_91" style="mask-type:luminance" maskUnits="userSpaceOnUse" x="0" y="0" width="1440" height="829">
<path d="M1440 0H0V829H1440V0Z" fill="white"/>
</mask>
<g mask="url(#mask0_8_91)">
<path d="M1440 6.10352e-05H0V829H1440V6.10352e-05Z" fill="#EEEBFF"/>
<path d="M0 443.648C58.096 437.533 111.747 413.462 166.182 382.797C234.249 344.451 319.371 333.439 357.953 241.997C396.749 150.051 364.799 31.5495 360.03 -76.6306C354.82 -194.813 377.399 -327.67 328.699 -421.634C279.684 -516.203 190.352 -540.961 110.64 -557.807C38.396 -573.076 -36.621 -561.556 -101.672 -512.593C-160.861 -468.041 -183.638 -364.573 -233.136 -299.051C-292.814 -220.052 -394.324 -201.292 -421.182 -89.6459C-447.885 21.3557 -409.762 149.558 -364.327 246.306C-322.274 335.855 -251.284 381.984 -182.098 419.459C-123.683 451.1 -62.046 450.18 0 443.648Z" fill="#BFB3FF"/>
<path d="M1440 1574.3C1563.01 1614.64 1694.23 1758.75 1804.73 1669.15C1913.68 1580.82 1892.6 1337.07 1941.24 1167.87C1988.23 1004.41 2094.69 868.708 2085.75 691.556C2076.71 512.432 1984.53 366.486 1894.69 245.748C1811.69 134.196 1706.05 76.3406 1597.43 35.2858C1492.04 -4.54763 1380.14 -43.0073 1278.09 12.7015C1178.49 67.0721 1127.55 220.712 1052.94 332.507C972.058 453.704 857.853 535.793 821.204 697.294C782.235 869.016 781.616 1077.55 849.713 1228.07C916.555 1375.81 1054.5 1394.26 1166.17 1459.76C1256.17 1512.55 1345.48 1543.31 1440 1574.3Z" fill="#F7F5FF"/>
</g>
</g>
<defs>
<clipPath id="clip0_8_91">
<rect width="1440" height="829" fill="white"/>
</clipPath>
</defs>
</svg>
