<svg xmlns="http://www.w3.org/2000/svg" version="1.1" xmlns:xlink="http://www.w3.org/1999/xlink" xmlns:svgjs="http://svgjs.com/svgjs" width="1440" height="560" preserveAspectRatio="none" viewBox="0 0 1440 560"><g mask="url(&quot;#SvgjsMask1004&quot;)" fill="none"><rect width="1440" height="560" x="0" y="0" fill="rgba(248, 246, 254, 1)"></rect><path d="M0,299.69C58.096,295.559,111.747,279.299,166.182,258.584C234.249,232.681,319.371,225.242,357.953,163.472C396.749,101.361,364.799,21.312,360.03,-51.765C354.82,-131.599,377.399,-221.345,328.699,-284.819C279.684,-348.702,190.352,-365.426,110.64,-376.806C38.396,-387.12,-36.621,-379.338,-101.672,-346.263C-160.861,-316.168,-183.638,-246.274,-233.136,-202.013C-292.814,-148.648,-394.324,-135.975,-421.182,-60.557C-447.885,14.426,-409.762,101.028,-364.327,166.383C-322.274,226.874,-251.284,258.035,-182.098,283.35C-123.683,304.724,-62.046,304.102,0,299.69" fill="#b29cf4"></path><path d="M1440 1063.461C1563.009 1090.7089999999998 1694.232 1188.0610000000001 1804.733 1127.5349999999999 1913.679 1067.8609999999999 1892.604 903.21 1941.243 788.91 1988.231 678.49 2094.693 586.823 2085.75 467.155 2076.708 346.154 1984.531 247.56599999999997 1894.693 166.00599999999997 1811.689 90.65100000000001 1706.055 51.56900000000002 1597.432 23.836000000000013 1492.041-3.0720000000000027 1380.144-29.05200000000002 1278.089 8.580000000000041 1178.4859999999999 45.30799999999999 1127.5529999999999 149.094 1052.943 224.613 972.058 306.483 857.853 361.935 821.204 471.031 782.235 587.031 781.616 727.902 849.713 829.575 916.555 929.374 1054.503 941.8389999999999 1166.172 986.085 1256.175 1021.7470000000001 1345.48 1042.524 1440 1063.461" fill="#ffffff"></path></g><defs><mask id="SvgjsMask1004"><rect width="1440" height="560" fill="#ffffff"></rect></mask></defs></svg>